<svg version="1.1" id="Ebene_1" xmlns="http://www.w3.org/2000/svg" x="0" y="0" viewBox="0 0 320 78" xml:space="preserve">
  <style>
    .st0{fill-rule:evenodd;clip-rule:evenodd;fill:#00a2d4}
  </style>
  <path class="st0" d="M135.875 68.748c-.93 0-1.309.342-1.578.342-.121 0-.121-.037-.121-.086 0-.085-.024-.159-.172-.159h-.66c-.097 0-.219.025-.219.22v8.215c0 .195.122.219.219.219h.696c.098 0 .22-.025.22-.219v-2.396c0-.097.025-.159.11-.159.122 0 .575.342 1.431.342 1.787 0 2.898-1.208 2.898-3.239 0-1.907-1.027-3.08-2.824-3.08zm1.627 3.107c0 2.139-1.285 2.359-1.982 2.359-.245 0-.526-.037-.747-.122-.341-.135-.513-.282-.513-.674v-3.019c0-.391.172-.538.513-.673a2.12 2.12 0 0 1 .747-.124c1.431 0 1.982.882 1.982 2.251v.002zM260.678 71.632l-.721-.452c-.539-.331-.796-.501-.796-.918 0-.476.453-.648.992-.648.783 0 1.124.44 1.32.44.146 0 .183-.085.183-.196v-.438c0-.147 0-.233-.123-.319-.244-.183-.829-.353-1.429-.353-1.174 0-2.017.525-2.017 1.662 0 .832.514 1.21 1.185 1.651l.758.489c.343.221.625.403.625.869 0 .502-.355.783-1.102.783-.88 0-1.148-.44-1.406-.44-.146 0-.183.086-.183.196v.451c0 .146 0 .22.123.305.305.232.952.354 1.551.354.918 0 2.14-.354 2.14-1.796 0-.807-.452-1.235-1.1-1.64zM131.338 68.748c-.771 0-1.185.463-1.54.463-.074 0-.134-.049-.134-.11v-.097c0-.086-.025-.159-.172-.159h-.66c-.097 0-.219.025-.219.22v5.684c0 .195.123.221.219.221h.696c.098 0 .219-.026.219-.221v-4.058c0-.453.135-.967 1.064-.967.648 0 .71.098.892.098.123 0 .172-.072.172-.182v-.49c.001-.219.001-.402-.537-.402zM254.051 68.748c-1.895 0-2.824 1.49-2.824 3.226 0 2.397 1.515 3.093 3.093 3.093.746 0 1.613-.134 1.919-.365.123-.086.135-.159.135-.318v-.416c0-.097-.036-.195-.17-.195-.085 0-.121.025-.196.061a3.465 3.465 0 0 1-1.564.379c-1.101 0-2.018-.588-2.018-2.008 0-.123.073-.169.184-.169h3.851c.098 0 .219-.026.219-.221v-.294c-.001-.976-.366-2.773-2.629-2.773zm1.297 2.47h-2.777c-.123 0-.147-.049-.147-.122 0-.405.269-1.518 1.59-1.518.637 0 1.48.33 1.48 1.481.001.135-.036.159-.146.159zM147.502 68.748c-1.993 0-2.946 1.343-2.946 3.178 0 1.896 1.013 3.141 2.934 3.141 1.993 0 2.947-1.344 2.947-3.178-.001-1.895-1.015-3.141-2.935-3.141zm0 5.478c-1.431 0-1.748-1.077-1.748-2.275 0-1.223.293-2.361 1.736-2.361 1.431 0 1.75 1.076 1.75 2.275-.001 1.222-.295 2.361-1.738 2.361zM83.695 67.402c0 .428.232.6.623.6.402 0 .647-.172.647-.586 0-.428-.232-.6-.623-.6-.404-.001-.647.171-.647.586zM101.237 66.815h-4.07c-.097 0-.219.025-.219.221v7.713c0 .195.122.221.219.221h.745c.098 0 .22-.026.22-.221v-3.521c0-.123.074-.147.123-.147h2.359c.097 0 .219-.023.219-.218v-.441c0-.195-.122-.218-.219-.218h-2.359c-.049 0-.123-.037-.123-.147v-2.215c0-.123.074-.147.123-.147h2.982c.098 0 .221-.024.221-.219v-.44c0-.196-.123-.221-.221-.221zM85.847 67.402c0 .428.232.6.623.6.403 0 .647-.172.647-.586 0-.428-.232-.6-.622-.6-.405-.001-.648.171-.648.586zM105.322 68.748c-1.993 0-2.946 1.343-2.946 3.178 0 1.896 1.014 3.141 2.934 3.141 1.993 0 2.946-1.344 2.946-3.178-.001-1.895-1.015-3.141-2.934-3.141zm0 5.478c-1.431 0-1.749-1.077-1.749-2.275 0-1.223.294-2.361 1.737-2.361 1.432 0 1.749 1.076 1.749 2.275 0 1.222-.294 2.361-1.737 2.361zM92.741 68.748c-.771 0-1.186.463-1.54.463-.074 0-.135-.049-.135-.11v-.097c0-.086-.025-.159-.17-.159h-.66c-.098 0-.221.025-.221.22v5.684c0 .195.123.221.221.221h.696c.097 0 .22-.026.22-.221v-4.058c0-.453.135-.967 1.064-.967.648 0 .71.098.892.098.123 0 .171-.072.171-.182v-.49c-.001-.219-.001-.402-.538-.402zM124.248 68.748c-1.895 0-2.824 1.49-2.824 3.226 0 2.397 1.516 3.093 3.094 3.093.746 0 1.613-.134 1.918-.365.123-.086.135-.159.135-.318v-.416c0-.097-.036-.195-.171-.195-.085 0-.122.025-.196.061a3.465 3.465 0 0 1-1.564.379c-1.101 0-2.019-.588-2.019-2.008 0-.123.074-.169.184-.169h3.851c.097 0 .219-.026.219-.221v-.294c0-.976-.365-2.773-2.627-2.773zm1.296 2.47h-2.776c-.123 0-.148-.049-.148-.122 0-.405.27-1.518 1.591-1.518.636 0 1.481.33 1.481 1.481 0 .135-.037.159-.148.159zM112.718 68.748c-.77 0-1.186.463-1.542.463-.073 0-.134-.049-.134-.11v-.097c0-.086-.025-.159-.172-.159h-.659c-.097 0-.219.025-.219.22v5.684c0 .195.122.221.219.221h.696c.099 0 .221-.026.221-.221v-4.058c0-.453.134-.967 1.063-.967.648 0 .709.098.893.098.123 0 .17-.072.17-.182v-.49c.001-.219.001-.402-.536-.402zM103.537 67.402c0 .428.232.6.623.6.404 0 .648-.172.648-.586 0-.428-.232-.6-.623-.6-.403-.001-.648.171-.648.586zM80.771 66.315c-.44 0-.807.074-1.149.354-.525.427-.525 1.1-.525 1.48v.551c0 .11-.061.146-.11.146h-.647c-.098 0-.221.025-.221.22v.403c0 .195.123.218.221.218h.648c.049 0 .11.037.11.148v4.914c0 .195.123.221.221.221h.696c.097 0 .219-.026.219-.221v-4.914c0-.112.062-.148.11-.148h1.04c.097 0 .219-.023.219-.218v-.403c0-.195-.123-.22-.219-.22h-1.04c-.048 0-.11-.036-.11-.146v-.563c0-.405-.013-.954.697-.954.354 0 .44.146.587.146.11 0 .159-.049.159-.195v-.464c-.001-.221-.282-.355-.906-.355zM87.667 68.846h-.696c-.099 0-.22.025-.22.22v4.378c0 .354-.159.5-.477.623a2.52 2.52 0 0 1-.869.159c-.514 0-.905-.123-1.151-.391-.208-.257-.256-.599-.256-1.173v-3.596c0-.195-.123-.22-.221-.22h-.696c-.097 0-.219.025-.219.22v3.424c0 1.002.049 1.54.452 1.98.378.427 1.014.598 1.711.598.379 0 .881-.086 1.235-.232.111-.048.306-.11.452-.11.122 0 .122.037.122.086 0 .085.025.159.172.159h.66c.097 0 .219-.026.219-.221v-5.684c.002-.195-.121-.22-.218-.22zM119.466 66.413h-.696c-.097 0-.219.024-.219.221v2.297c0 .097-.024.159-.11.159-.111 0-.527-.342-1.395-.342-1.761 0-2.934 1.135-2.934 3.24 0 1.907 1.025 3.08 2.824 3.08.929 0 1.308-.342 1.578-.342.123 0 .123.037.123.086 0 .085.024.159.17.159h.659c.099 0 .221-.026.221-.221v-8.116c0-.197-.122-.221-.221-.221zm-.915 7.004c0 .391-.172.538-.514.672a2.11 2.11 0 0 1-.746.124c-1.43 0-1.982-.881-1.982-2.251 0-2.141 1.285-2.362 1.982-2.362.245 0 .527.037.746.123.343.135.514.282.514.674v3.02zM143.16 68.748c-.77 0-1.186.463-1.54.463-.074 0-.135-.049-.135-.11v-.097c0-.086-.025-.159-.17-.159h-.66c-.098 0-.219.025-.219.22v5.684c0 .195.121.221.219.221h.696c.097 0 .22-.026.22-.221v-4.058c0-.453.135-.967 1.064-.967.648 0 .71.098.892.098.123 0 .171-.072.171-.182v-.49c0-.219 0-.402-.538-.402zM105.689 67.402c0 .428.232.6.623.6.401 0 .647-.172.647-.586 0-.428-.232-.6-.623-.6-.403-.001-.647.171-.647.586zM194.67 68.748c-1.895 0-2.825 1.49-2.825 3.226 0 2.397 1.516 3.093 3.093 3.093.747 0 1.614-.134 1.921-.365.12-.086.134-.159.134-.318v-.416c0-.097-.037-.195-.17-.195-.086 0-.123.025-.196.061-.232.123-.82.379-1.566.379-1.1 0-2.017-.588-2.017-2.008 0-.123.074-.169.183-.169h3.852c.097 0 .219-.026.219-.221v-.294c0-.976-.366-2.773-2.628-2.773zm1.296 2.47h-2.777c-.121 0-.146-.049-.146-.122 0-.405.268-1.518 1.589-1.518.637 0 1.481.33 1.481 1.481 0 .135-.036.159-.147.159zM206.381 66.413h-.696c-.097 0-.219.024-.219.221v2.297c0 .097-.023.159-.109.159-.112 0-.527-.342-1.395-.342-1.762 0-2.934 1.135-2.934 3.24 0 1.907 1.026 3.08 2.823 3.08.93 0 1.308-.342 1.578-.342.123 0 .123.037.123.086 0 .085.025.159.17.159h.659c.099 0 .221-.026.221-.221v-8.116c0-.197-.122-.221-.221-.221zm-.915 7.004c0 .391-.172.538-.514.672-.219.088-.5.124-.746.124-1.431 0-1.981-.881-1.981-2.251 0-2.141 1.284-2.362 1.981-2.362.246 0 .527.037.746.123.343.135.514.282.514.674v3.02zM234.869 68.846h-.696c-.099 0-.219.025-.219.22v4.378c0 .354-.16.5-.478.623a2.522 2.522 0 0 1-.868.159c-.515 0-.905-.123-1.151-.391-.208-.257-.256-.599-.256-1.173v-3.596c0-.195-.121-.22-.221-.22h-.696c-.097 0-.219.025-.219.22v3.424c0 1.002.049 1.54.452 1.98.378.427 1.014.598 1.711.598.38 0 .881-.086 1.235-.232.111-.048.306-.11.453-.11.121 0 .121.037.121.086 0 .085.026.159.172.159h.66c.097 0 .219-.026.219-.221v-5.684c.001-.195-.122-.22-.219-.22zM211.162 68.748c-1.895 0-2.823 1.49-2.823 3.226 0 2.397 1.515 3.093 3.092 3.093.747 0 1.614-.134 1.92-.365.121-.086.134-.159.134-.318v-.416c0-.097-.036-.195-.172-.195-.083 0-.12.025-.194.061-.232.123-.82.379-1.566.379-1.1 0-2.017-.588-2.017-2.008 0-.123.072-.169.183-.169h3.851c.098 0 .219-.026.219-.221v-.294c.001-.976-.364-2.773-2.627-2.773zm1.297 2.47h-2.777c-.123 0-.146-.049-.146-.122 0-.405.269-1.518 1.589-1.518.637 0 1.481.33 1.481 1.481 0 .135-.037.159-.147.159zM217.789 71.632l-.721-.452c-.539-.331-.796-.501-.796-.918 0-.476.454-.648.992-.648.783 0 1.125.44 1.32.44.146 0 .183-.085.183-.196v-.438c0-.147 0-.233-.122-.319-.244-.183-.83-.353-1.43-.353-1.174 0-2.017.525-2.017 1.662 0 .832.514 1.21 1.185 1.651l.758.489c.343.221.625.403.625.869 0 .502-.355.783-1.102.783-.88 0-1.148-.44-1.405-.44-.146 0-.183.086-.183.196v.451c0 .146 0 .22.122.305.305.232.953.354 1.551.354.918 0 2.139-.354 2.139-1.796.001-.807-.451-1.235-1.099-1.64zM226.628 70.642c-.06-.012-.086-.036-.086-.061 0-.024.026-.061.086-.073.185-.037 1.235-.318 1.235-1.711 0-1.077-.55-1.578-1.209-1.797-.527-.17-1.138-.184-1.835-.184h-1.613c-.098 0-.219.025-.219.221v7.713c0 .195.121.221.219.221h1.845c.795 0 1.395-.074 1.737-.172 1.271-.378 1.564-1.454 1.564-2.09 0-.979-.427-1.835-1.724-2.067zm-2.482-2.91c0-.122.074-.147.123-.147h.648c.783 0 1.725.073 1.725 1.32 0 1.31-1.065 1.396-1.664 1.396h-.709c-.049 0-.123-.037-.123-.148v-2.421zm1.015 6.469h-.892c-.049 0-.123-.036-.123-.147v-2.838c0-.121.074-.147.123-.147h1.003c.844 0 1.859.135 1.859 1.554-.001 1.492-1.126 1.578-1.97 1.578zM188.129 68.748c-1.357 0-1.725.537-2.079.537h-.072c-.257 0-.465-.537-1.651-.537-.465 0-.844.085-1.2.233-.11.049-.305.109-.452.109-.123 0-.123-.037-.123-.086 0-.086-.024-.159-.17-.159h-.659c-.099 0-.221.025-.221.22v5.684c0 .195.122.221.221.221h.696c.097 0 .219-.026.219-.221v-4.377c0-.354.159-.5.478-.623a2.1 2.1 0 0 1 .795-.16c.514 0 .844.123 1.089.391.208.257.268.576.268 1.149v3.62c0 .195.123.221.219.221h.696c.099 0 .22-.026.22-.221v-4.378c0-.354.159-.5.477-.622.245-.099.514-.159.796-.159.514 0 .844.123 1.089.391.207.257.269.576.269 1.149v3.62c0 .195.121.221.219.221h.696c.097 0 .219-.026.219-.221v-3.411c0-1.002-.061-1.541-.465-1.98-.375-.428-.876-.611-1.574-.611zM157.196 68.846h-.659c-.159 0-.17.074-.17.159 0 .049 0 .086-.135.086-.269 0-.587-.342-1.456-.342-1.762 0-2.933 1.087-2.933 3.19 0 1.908 1.025 3.032 2.823 3.032.892 0 1.357-.379 1.504-.379.086 0 .111.061.111.158v.403c0 .428-.049.881-.428 1.138-.38.257-.942.343-1.394.343-1.076 0-1.688-.318-1.956-.465-.074-.037-.112-.061-.196-.061-.11 0-.159.086-.159.196v.439c0 .146 0 .22.123.306.207.146 1.099.451 2.103.451 1.369 0 2.42-.353 2.836-1.269.146-.33.207-.71.207-1.346v-5.819c-.001-.22-.16-.22-.221-.22zm-.915 4.474c0 .392-.172.539-.514.674a2.164 2.164 0 0 1-.747.121c-1.43 0-1.981-.832-1.981-2.201 0-2.141 1.284-2.313 1.981-2.313.245 0 .525.037.747.123.342.135.514.283.514.674v2.922zM162.429 68.748c-.77 0-1.187.463-1.54.463-.074 0-.135-.049-.135-.11v-.097c0-.086-.024-.159-.17-.159h-.66c-.098 0-.219.025-.219.22v5.684c0 .195.121.221.219.221h.696c.097 0 .219-.026.219-.221v-4.058c0-.453.135-.967 1.063-.967.648 0 .709.098.892.098.123 0 .172-.072.172-.182v-.49c.001-.219.001-.402-.537-.402zM166.537 68.748c-1.222 0-1.968.305-2.139.428-.123.085-.123.158-.123.304v.452c0 .11.05.196.159.196.086 0 .122-.025.196-.061.268-.146.782-.452 1.797-.452 1.053 0 1.139.416 1.139.82v.195c0 .245-.148.319-.356.379l-1.431.441c-1.124.354-1.93.745-1.93 1.932 0 .844.391 1.686 2.041 1.686.93 0 1.357-.342 1.64-.342.122 0 .122.037.122.086 0 .085.025.159.17.159h.66c.098 0 .219-.026.219-.221v-3.876c0-.916-.085-1.296-.415-1.626-.183-.183-.586-.5-1.749-.5zm1.029 4.657c0 .33-.05.465-.356.611-.305.149-.697.198-1.039.198-.624 0-1.126-.208-1.126-.906 0-.794.588-.942 1.248-1.162l.979-.33c.11-.037.11-.049.196-.049.073 0 .099.037.099.123v1.515zM249.27 66.413h-.696c-.097 0-.219.024-.219.221v2.297c0 .097-.024.159-.11.159-.111 0-.527-.342-1.394-.342-1.762 0-2.934 1.135-2.934 3.24 0 1.907 1.026 3.08 2.824 3.08.93 0 1.308-.342 1.578-.342.122 0 .122.037.122.086 0 .085.025.159.17.159h.66c.099 0 .221-.026.221-.221v-8.116c-.001-.197-.123-.221-.222-.221zm-.915 7.004c0 .391-.172.538-.515.672a2.11 2.11 0 0 1-.746.124c-1.431 0-1.981-.881-1.981-2.251 0-2.141 1.284-2.362 1.981-2.362.245 0 .527.037.746.123.343.135.515.282.515.674v3.02zM177.395 68.748c-1.358 0-1.725.537-2.079.537h-.073c-.256 0-.464-.537-1.651-.537a3.01 3.01 0 0 0-1.198.233c-.11.049-.306.109-.452.109-.123 0-.123-.037-.123-.086 0-.086-.025-.159-.172-.159h-.659c-.097 0-.219.025-.219.22v5.684c0 .195.122.221.219.221h.696c.098 0 .221-.026.221-.221v-4.377c0-.354.159-.5.476-.623.245-.1.514-.16.795-.16.514 0 .845.123 1.089.391.208.257.27.576.27 1.149v3.62c0 .195.121.221.219.221h.696c.097 0 .219-.026.219-.221v-4.378c0-.354.159-.5.477-.622.245-.099.514-.159.795-.159.513 0 .845.123 1.089.391.208.257.269.576.269 1.149v3.62c0 .195.122.221.221.221h.696c.097 0 .219-.026.219-.221v-3.411c0-1.002-.062-1.541-.464-1.98-.378-.428-.88-.611-1.576-.611zM240.065 68.748c-.379 0-.869.085-1.223.233-.11.049-.305.109-.453.109-.121 0-.121-.037-.121-.086 0-.086-.025-.159-.17-.159h-.66c-.099 0-.221.025-.221.22v5.684c0 .195.123.221.221.221h.695c.098 0 .221-.026.221-.221v-4.377c0-.354.158-.5.477-.623.244-.1.574-.16.855-.16.514 0 .905.134 1.15.403.207.257.27.6.27 1.173v3.583c0 .195.122.221.219.221h.696c.098 0 .221-.026.221-.221v-3.411c0-1.002-.062-1.541-.465-1.98-.379-.426-1.015-.609-1.712-.609zM3.185 72.532s0 1.881 1.146 1.881h41.798s1.146 0 1.146-1.881V70.85H3.185v1.682zM3.185 56.598h44.09v3.563H3.185zM3.185 63.724h44.09v3.563H3.185zM45.476 41.282H20.223c-.402 0-1.004-.301-1.004-1.203v-5.133c0-1.002.602-1.201 1.004-1.201H38.36c.802 0 1.805-.201 1.805-1.803v-8.119c0-1.602-1.003-1.802-1.805-1.802H20.223c-.402 0-1.004-.301-1.004-1.204V15.5c0-1.003.602-1.203 1.004-1.203h23.248c.803 0 1.803-.2 1.803-1.805V4.377c0-1.604-1-1.805-1.803-1.805H4.988c-.8 0-1.803.201-1.803 1.805v48.642h44.089l.005-9.934c0-1.604-1.002-1.803-1.803-1.803zM231.665 9.959V7.857c0-.526-.33-.592-.593-.592h-2.398c-.13 0-.295-.097-.295-.394v-.427c0-.459.034-1.379.099-1.608.196-.723.624-.954 1.379-.954.723 0 .987.329 1.38.329.231 0 .429-.132.429-.526V1.681c0-.788-1.577-1.181-3.318-1.181-1.381 0-3.646.327-4.567 2.759-.23.59-.329 1.247-.329 2.791v.821c0 .297-.164.394-.295.394h-1.412c-.263 0-.593.066-.593.592v2.102c0 .526.329.59.593.59h1.412c.131 0 .295.099.295.394v12.419c0 .525.329.591.591.591h3.746c.262 0 .59-.066.59-.591V10.944c0-.295.165-.394.295-.394h2.398c.263 0 .593-.064.593-.591zM152.795 23.954c2.399 0 3.614-1.019 4.041-1.019.197 0 .296.165.296.428v.493c0 1.051-.165 2.036-1.215 2.726-1.019.657-2.529.82-3.746.82-2.89 0-4.532-.853-5.255-1.247-.197-.1-.295-.165-.526-.165-.295 0-.427.228-.427.526v2.2c0 .395 0 .593.329.821.756.559 3.877 1.249 6.405 1.249 3.908 0 7.259-.953 8.639-3.614.559-1.084.723-2.496.723-4.204V7.857c0-.592-.426-.592-.591-.592h-3.647c-.426 0-.46.197-.46.427 0 .131 0 .231-.328.231-.756 0-1.577-.92-3.942-.92-4.73 0-7.884 2.924-7.884 8.672 0 5.191 2.76 8.279 7.588 8.279zm1.676-13.503c.526 0 1.052.066 1.512.263.722.297 1.15.626 1.15 1.511v6.145c0 1.215-.428 1.51-1.15 1.837-.46.198-.986.263-1.512.263-2.989 0-4.105-1.806-4.105-4.861-.001-4.763 2.626-5.158 4.105-5.158zM316.223 20.636h-6.766c-.296 0-.426-.033-.426-.23 0-.164.064-.229.163-.362l6.966-9.296c.295-.395.359-.657.359-1.149V7.857c0-.526-.327-.592-.59-.592H303.97c-.263 0-.59.066-.59.592v2.102c0 .526.327.59.59.59h5.946c.295 0 .428.034.428.232 0 .162-.067.229-.165.362l-6.768 9.033c-.295.393-.361.722-.361 1.15v2.036c0 .525.329.591.59.591h12.581c.263 0 .593-.066.593-.591v-2.136c.001-.524-.328-.59-.591-.59zM123.215 24.249c2.431 0 4.764-.393 5.583-1.017.329-.23.362-.43.362-.854v-2.07c0-.263-.098-.526-.46-.526-.229 0-.296.067-.493.165-.624.328-2.2 1.019-4.368 1.019-2.89 0-4.796-1.15-4.796-3.942 0-.328.196-.461.492-.461h10.053c.263 0 .591-.066.591-.59v-.789c0-3.449-.984-8.245-8.015-8.245-4.697 0-8.278 2.563-8.278 8.837-.001 6.634 4.532 8.473 9.329 8.473zm-1.183-14.258c1.413 0 3.219.593 3.219 3.122 0 .36-.066.426-.394.426h-5.519c-.328 0-.393-.132-.393-.328 0-1.937 1.149-3.22 3.087-3.22zM170.031 7.265h-3.745c-.262 0-.59.066-.59.592v15.506c0 .525.328.591.59.591h3.745c.263 0 .591-.066.591-.591V7.89c.001-.526-.328-.625-.591-.625zM96.265 23.954h3.745c.263 0 .592-.066.592-.591V12.489c0-.823.328-1.28.984-1.577.495-.229 1.183-.328 1.741-.328 1.052 0 1.807.296 2.3.92.427.558.559 1.379.559 2.694v9.165c0 .525.328.591.592.591h3.745c.263 0 .59-.066.59-.591v-9.429c0-2.692-.163-4.139-1.247-5.322-1.053-1.15-2.727-1.642-4.6-1.642-1.018 0-2.332.262-3.284.657-.295.131-.789.297-1.183.297-.329 0-.362-.1-.362-.231 0-.23-.066-.427-.46-.427h-3.712c-.263 0-.59.066-.59.592v15.506c0 .524.327.59.59.59zM274.08 6.937c-4.696 0-8.277 2.563-8.277 8.837 0 6.636 4.533 8.475 9.328 8.475 2.431 0 4.764-.393 5.585-1.017.328-.23.362-.43.362-.854v-2.07c0-.263-.099-.526-.46-.526-.231 0-.297.067-.495.165-.623.328-2.199 1.019-4.369 1.019-2.889 0-4.795-1.15-4.795-3.942 0-.328.197-.461.494-.461h10.05c.264 0 .593-.066.593-.59v-.789c.001-3.451-.985-8.247-8.016-8.247zm2.694 6.602h-5.518c-.329 0-.395-.132-.395-.328 0-1.938 1.151-3.221 3.089-3.221 1.411 0 3.218.593 3.218 3.122 0 .361-.065.427-.394.427zM236.459 5.065c1.741 0 2.759-.788 2.759-2.167 0-1.414-.985-2.202-2.759-2.202-1.741 0-2.759.788-2.759 2.167.001 1.414.985 2.202 2.759 2.202zM242.165 23.954h12.58c.263 0 .593-.066.593-.591v-2.136c0-.525-.33-.591-.593-.591h-6.766c-.295 0-.426-.033-.426-.23 0-.164.064-.229.163-.362l6.966-9.296c.295-.395.362-.657.362-1.149V7.857c0-.526-.33-.592-.593-.592h-11.957c-.262 0-.59.066-.59.592v2.102c0 .526.328.59.59.59h5.946c.295 0 .428.034.428.232 0 .162-.067.229-.165.362l-6.768 9.033c-.295.393-.361.722-.361 1.15v2.036c0 .526.329.592.591.592zM168.16 5.065c1.74 0 2.758-.788 2.758-2.167 0-1.414-.985-2.202-2.758-2.202-1.741 0-2.76.788-2.76 2.167 0 1.414.984 2.202 2.76 2.202zM238.332 7.265h-3.745c-.263 0-.592.066-.592.592v15.506c0 .525.328.591.592.591h3.745c.264 0 .591-.066.591-.591V7.89c0-.526-.327-.625-.591-.625zM199.924 6.937c-4.697 0-8.278 2.563-8.278 8.837 0 6.636 4.533 8.475 9.33 8.475 2.431 0 4.763-.393 5.584-1.017.329-.23.362-.43.362-.854v-2.07c0-.263-.098-.526-.46-.526-.229 0-.295.067-.492.165-.624.328-2.202 1.019-4.37 1.019-2.892 0-4.795-1.15-4.795-3.942 0-.328.197-.461.492-.461h10.053c.261 0 .59-.066.59-.59v-.789c0-3.451-.986-8.247-8.016-8.247zm2.695 6.602H197.1c-.329 0-.394-.132-.394-.328 0-1.938 1.15-3.221 3.087-3.221 1.412 0 3.22.593 3.22 3.122 0 .361-.067.427-.394.427zM182.747 24.249c2.432 0 4.765-.393 5.586-1.017.328-.23.362-.43.362-.854v-2.07c0-.263-.099-.526-.46-.526-.232 0-.298.067-.495.165-.623.328-2.199 1.019-4.369 1.019-2.89 0-4.796-1.15-4.796-3.942 0-.328.199-.461.494-.461h10.051c.263 0 .593-.066.593-.59v-.789c0-3.449-.987-8.245-8.016-8.245-4.697 0-8.277 2.563-8.277 8.837-.001 6.634 4.532 8.473 9.327 8.473zm-1.182-14.258c1.413 0 3.219.593 3.219 3.122 0 .36-.066.426-.394.426h-5.519c-.328 0-.395-.132-.395-.328.001-1.937 1.151-3.22 3.089-3.22zM294.69 6.97c-1.018 0-2.332.262-3.283.657-.297.131-.789.297-1.183.297-.329 0-.362-.1-.362-.231 0-.23-.066-.427-.46-.427h-3.712c-.263 0-.591.066-.591.592v15.506c0 .525.328.591.591.591h3.744c.263 0 .593-.066.593-.591V12.489c0-.823.328-1.28.985-1.577.493-.229 1.183-.328 1.741-.328 1.051 0 1.807.296 2.3.92.427.558.557 1.379.557 2.694v9.165c0 .525.329.591.592.591h3.746c.262 0 .589-.066.589-.591v-9.429c0-2.692-.163-4.139-1.247-5.322-1.052-1.15-2.728-1.642-4.6-1.642zM260.544.696c-1.74 0-2.76.788-2.76 2.167 0 1.414.987 2.202 2.76 2.202 1.74 0 2.76-.788 2.76-2.167-.001-1.414-.986-2.202-2.76-2.202zM262.417 7.265h-3.745c-.263 0-.59.066-.59.592v15.506c0 .525.328.591.59.591h3.745c.263 0 .59-.066.59-.591V7.89c0-.526-.328-.625-.59-.625zM216.497.5c-1.381 0-3.646.327-4.566 2.759-.229.59-.329 1.247-.329 2.791v.821c0 .297-.164.394-.295.394h-1.413c-.263 0-.591.066-.591.592v2.102c0 .526.328.59.591.59h1.413c.131 0 .295.099.295.394v12.419c0 .525.329.591.592.591h3.745c.262 0 .592-.066.592-.591V10.944c0-.295.163-.394.296-.394h2.397c.263 0 .592-.064.592-.59V7.857c0-.526-.328-.592-.592-.592h-2.397c-.133 0-.296-.097-.296-.394v-.427c0-.459.032-1.379.098-1.608.198-.723.623-.954 1.381-.954.721 0 .984.329 1.379.329.229 0 .427-.132.427-.526V1.681C219.815.893 218.238.5 216.497.5zM142.38 7.004c-2.465 0-3.188 1.247-4.139 1.247-.197 0-.362-.13-.362-.294v-.264c0-.23-.066-.427-.46-.427h-3.646c-.263 0-.593.066-.593.592v15.506c0 .525.329.591.593.591h3.745c.263 0 .592-.066.592-.591V13.64c0-1.217.328-2.596 2.955-2.596 1.741 0 2.004.262 2.497.262.329 0 .46-.198.46-.493V8.088c-.001-.559-.198-1.084-1.642-1.084zM78.994 23.954h13.271c.263 0 .591-.066.591-.591v-2.661c0-.526-.328-.593-.591-.593h-8.278c-.131 0-.328-.099-.328-.394V14.92c0-.329.197-.395.328-.395h5.947c.262 0 .59-.066.59-.591v-2.66c0-.527-.328-.592-.59-.592h-5.947c-.131 0-.328-.099-.328-.396V6.28c0-.328.197-.395.328-.395h7.622c.263 0 .591-.065.591-.59v-2.66c0-.527-.328-.593-.591-.593H78.994c-.263 0-.592.066-.592.593v20.727c0 .526.329.592.592.592zM78.523 55.037h11.595c.263 0 .593-.066.593-.591v-1.182c0-.527-.329-.593-.593-.593h-8.671c-.132 0-.33-.097-.33-.394v-7.292c0-.327.198-.392.33-.392h6.339c.263 0 .59-.068.59-.593v-1.183c0-.525-.328-.59-.59-.59h-6.339c-.132 0-.33-.099-.33-.396v-5.945c0-.329.198-.395.33-.395h8.015c.262 0 .59-.066.59-.591v-1.181c0-.527-.328-.593-.59-.593H78.523c-.263 0-.592.066-.592.593v20.727c0 .526.329.591.592.591zM99.109 48.797c.165 0 .229.163.362.327l3.776 5.519c.132.163.23.395.691.395h2.135c.394 0 .559-.198.559-.46 0-.232-.099-.33-.229-.525l-5.092-7.425c-.099-.165-.163-.297-.163-.426 0-.131.032-.23.13-.361l4.238-6.275c.132-.198.229-.329.229-.559 0-.264-.164-.428-.559-.428h-1.577c-.46 0-.559.23-.656.395l-2.957 4.796c-.099.162-.196.295-.328.295-.165 0-.23-.164-.361-.328l-3.253-4.763c-.131-.165-.23-.395-.69-.395h-2.135c-.393 0-.559.164-.559.428 0 .229.098.361.231.559l4.499 6.57c.099.162.23.327.23.492 0 .131-.066.295-.23.526l-4.664 6.898c-.131.195-.229.329-.229.557 0 .263.163.428.559.428h1.641c.46 0 .559-.232.657-.395l3.416-5.551c.099-.163.198-.294.329-.294zM153.376 40.715v-1.313c0-.592 0-1.085-1.446-1.085-2.07 0-3.186 1.25-4.138 1.25-.197 0-.362-.133-.362-.296v-.263c0-.231-.066-.428-.46-.428h-1.775c-.262 0-.592.066-.592.593v15.275c0 .525.33.591.592.591h1.874c.262 0 .589-.066.589-.591V43.54c0-1.214.362-2.595 2.859-2.595 1.741 0 1.906.263 2.399.263.33-.001.46-.197.46-.493zM166.276 54.118v-1.249c0-.396-.197-.525-.46-.525-.426 0-.888.626-2.496.626-1.215 0-1.774-.496-2.036-1.152-.198-.46-.231-.885-.231-1.904V41.24c0-.294.164-.393.297-.393h4.336c.262 0 .59-.066.59-.592v-1.082c0-.527-.328-.593-.59-.593h-4.336c-.133 0-.297-.099-.297-.394V34.8c0-.524-.328-.59-.591-.59h-1.872c-.263 0-.591.066-.591.59v3.385c0 .295-.165.394-.297.394h-1.74c-.263 0-.593.066-.593.593v1.082c0 .526.329.592.593.592h1.74c.132 0 .297.099.297.393v8.674c0 1.939.229 3.481 1.346 4.402.919.755 2.267.986 3.449.986s3.482-.295 3.482-1.183zM181.629 52.343c0-.262-.098-.526-.46-.526-.229 0-.327.066-.525.165a9.362 9.362 0 0 1-4.206 1.019c-2.956 0-5.419-1.577-5.419-5.387 0-.33.196-.46.493-.46h10.348c.26 0 .59-.067.59-.593v-.786c0-2.63-.986-7.459-7.062-7.459-5.092 0-7.588 4.01-7.588 8.674 0 6.438 4.073 8.311 8.311 8.311 2.003 0 4.336-.362 5.157-.986.329-.23.362-.43.362-.854v-1.118zm-6.339-11.792c1.707 0 3.976.885 3.976 3.973 0 .362-.099.428-.395.428h-7.457c-.329 0-.394-.132-.394-.329 0-1.083.722-4.072 4.27-4.072zM139.932 51.817c-.231 0-.329.066-.527.165a9.36 9.36 0 0 1-4.204 1.019c-2.956 0-5.42-1.577-5.42-5.387 0-.33.198-.46.494-.46h10.346c.263 0 .592-.067.592-.593v-.786c0-2.63-.985-7.459-7.063-7.459-5.092 0-7.588 4.01-7.588 8.674 0 6.438 4.073 8.311 8.311 8.311 2.003 0 4.337-.362 5.157-.986.328-.23.362-.43.362-.854v-1.117c-.001-.262-.1-.527-.46-.527zm-5.882-11.266c1.709 0 3.976.885 3.976 3.973 0 .362-.099.428-.394.428h-7.458c-.328 0-.394-.132-.394-.329 0-1.083.723-4.072 4.27-4.072zM112.137 61.247v-6.441c0-.261.065-.424.295-.424.328 0 1.545.919 3.844.919 4.796 0 7.784-3.253 7.784-8.706 0-5.126-2.758-8.279-7.587-8.279-2.496 0-3.514.921-4.238.921-.329 0-.329-.099-.329-.229 0-.231-.066-.428-.46-.428h-1.775c-.262 0-.59.066-.59.593v22.075c0 .525.328.59.59.59h1.873c.264-.001.593-.067.593-.591zm0-18.497c0-1.05.46-1.443 1.381-1.805.59-.23 1.346-.33 2.002-.33 3.845 0 5.323 2.367 5.323 6.045 0 5.75-3.45 6.341-5.323 6.341-.656 0-1.411-.1-2.002-.33-.921-.361-1.381-.756-1.381-1.806V42.75z"/>
</svg>
